<?xml version="1.0" encoding="utf-8"?>
<!-- Generator: Adobe Illustrator 16.0.0, SVG Export Plug-In . SVG Version: 6.00 Build 0)  -->
<!DOCTYPE svg PUBLIC "-//W3C//DTD SVG 1.1//EN" "http://www.w3.org/Graphics/SVG/1.1/DTD/svg11.dtd">
<svg version="1.1" id="Icons" xmlns="http://www.w3.org/2000/svg" xmlns:xlink="http://www.w3.org/1999/xlink" x="0px" y="0px"
	 width="100px" height="100px" viewBox="0 0 100 100" enable-background="new 0 0 100 100" xml:space="preserve">
<path fill="#FFFFFF" d="M59.084,50.957c0-4.761-3.874-8.635-8.637-8.635c-4.761,0-8.635,3.874-8.635,8.635
	c0,4.762,3.875,8.637,8.635,8.637C55.21,59.594,59.084,55.719,59.084,50.957z"/>
<g>
	<path fill="#FFFFFF" d="M50.447,30.155c4.484,0,8.639,1.431,12.039,3.853h16.341h14.987v-6.102c0-12.076-9.824-21.9-21.9-21.9
		h-43.83c-12.076,0-21.9,9.824-21.9,21.9v6.102H38.41C41.811,31.586,45.964,30.155,50.447,30.155z M68.398,19.316
		c0-1.338,1.095-2.434,2.434-2.434h7.518c1.34,0,2.434,1.095,2.434,2.434v7.519c0,1.338-1.094,2.434-2.434,2.434h-7.518
		c-1.339,0-2.434-1.095-2.434-2.434V19.316z"/>
	<path fill="#FFFFFF" d="M71.251,50.957c0,11.47-9.333,20.802-20.804,20.802c-11.47,0-20.802-9.332-20.802-20.802
		c0-3.158,0.711-6.153,1.977-8.837H6.185v29.975c0,12.076,9.824,21.899,21.9,21.899h43.83c12.076,0,21.9-9.823,21.9-21.899V42.12
		h-24.54C70.54,44.804,71.251,47.799,71.251,50.957z"/>
</g>
</svg>
