<?xml version="1.0" encoding="utf-8"?>
<!-- Generator: Adobe Illustrator 21.1.0, SVG Export Plug-In . SVG Version: 6.00 Build 0)  -->
<svg version="1.1" id="Layer_1" xmlns="http://www.w3.org/2000/svg" xmlns:xlink="http://www.w3.org/1999/xlink" x="0px" y="0px"
	 viewBox="0 0 100 125" style="enable-background:new 0 0 100 125;" xml:space="preserve">
<style type="text/css">
	.st0{fill:#FF6A81;}
</style>
<path class="st0" d="M50,11.5c-21.2,0-38.5,17.3-38.5,38.5S28.8,88.5,50,88.5S88.5,71.2,88.5,50S71.2,11.5,50,11.5z M63.9,63.8
	c-0.5,0.5-1.1,0.7-1.8,0.7s-1.3-0.2-1.8-0.7L50,53.5L39.8,63.8c-0.5,0.5-1.1,0.7-1.8,0.7s-1.3-0.2-1.8-0.7c-1-1-1-2.6,0-3.5L46.5,50
	L36.2,39.7c-1-0.9-1-2.5,0-3.5c0.9-1,2.5-1,3.5,0L50,46.5l10.3-10.3c0.9-1,2.5-1,3.5,0c1,0.9,1,2.5,0,3.5L53.5,50l10.4,10.3
	C64.9,61.2,64.9,62.8,63.9,63.8z"/>
</svg>
