<?xml version="1.0" encoding="utf-8"?>
<!-- Generator: Adobe Illustrator 16.0.0, SVG Export Plug-In . SVG Version: 6.00 Build 0)  -->
<!DOCTYPE svg PUBLIC "-//W3C//DTD SVG 1.1//EN" "http://www.w3.org/Graphics/SVG/1.1/DTD/svg11.dtd">
<svg version="1.1" id="Icons" xmlns="http://www.w3.org/2000/svg" xmlns:xlink="http://www.w3.org/1999/xlink" x="0px" y="0px"
	 width="100px" height="100px" viewBox="0 0 100 100" enable-background="new 0 0 100 100" xml:space="preserve">
<path fill="#FFFFFF" d="M54.852,5.001c-24.381,0-36.675,17.481-36.675,32.059c0,8.827,3.341,16.68,10.509,19.604
	c1.175,0.482,2.228,0.018,2.569-1.283c0.236-0.901,0.797-3.174,1.047-4.119c0.344-1.287,0.211-1.737-0.737-2.859
	c-2.067-2.438-3.387-5.594-3.387-10.064c0-12.97,9.703-24.58,25.266-24.58c13.782,0,21.354,8.421,21.354,19.667
	c0,14.797-6.549,27.285-16.271,27.285c-5.368,0-9.387-4.439-8.099-9.884c1.542-6.502,4.53-13.519,4.53-18.211
	c0-4.201-2.255-7.705-6.921-7.705c-5.488,0-9.896,5.678-9.896,13.283c0,4.844,1.636,8.12,1.636,8.12S34.16,70.111,33.176,74.28
	c-1.961,8.299-0.295,18.474-0.154,19.5c0.083,0.609,0.865,0.754,1.22,0.295c0.505-0.661,7.043-8.73,9.265-16.794
	c0.629-2.284,3.61-14.106,3.61-14.106c1.783,3.402,6.994,6.397,12.536,6.397c16.497,0,27.689-15.04,27.689-35.172
	C87.342,19.178,74.448,5.001,54.852,5.001z"/>
</svg>
